<svg width="162" height="45" viewBox="0 0 162 45" fill="none" xmlns="http://www.w3.org/2000/svg">
<path d="M58.9261 11.6364V32H54.6903V11.6364H58.9261ZM68.9398 32.2983C67.3953 32.2983 66.0596 31.9702 64.9327 31.3139C63.8124 30.651 62.9474 29.7296 62.3375 28.5497C61.7277 27.3632 61.4228 25.9877 61.4228 24.4233C61.4228 22.8456 61.7277 21.4669 62.3375 20.2869C62.9474 19.1004 63.8124 18.179 64.9327 17.5227C66.0596 16.8598 67.3953 16.5284 68.9398 16.5284C70.4843 16.5284 71.8167 16.8598 72.937 17.5227C74.0639 18.179 74.9322 19.1004 75.5421 20.2869C76.1519 21.4669 76.4569 22.8456 76.4569 24.4233C76.4569 25.9877 76.1519 27.3632 75.5421 28.5497C74.9322 29.7296 74.0639 30.651 72.937 31.3139C71.8167 31.9702 70.4843 32.2983 68.9398 32.2983ZM68.9597 29.017C69.6624 29.017 70.249 28.8182 70.7196 28.4205C71.1903 28.0161 71.5449 27.4659 71.7836 26.7699C72.0288 26.0739 72.1515 25.2817 72.1515 24.3935C72.1515 23.5052 72.0288 22.7131 71.7836 22.017C71.5449 21.321 71.1903 20.7708 70.7196 20.3665C70.249 19.9621 69.6624 19.7599 68.9597 19.7599C68.2504 19.7599 67.6538 19.9621 67.1699 20.3665C66.6927 20.7708 66.3314 21.321 66.0861 22.017C65.8475 22.7131 65.7282 23.5052 65.7282 24.3935C65.7282 25.2817 65.8475 26.0739 66.0861 26.7699C66.3314 27.4659 66.6927 28.0161 67.1699 28.4205C67.6538 28.8182 68.2504 29.017 68.9597 29.017ZM87.1442 16.7273V19.9091H77.7181V16.7273H87.1442ZM79.8757 32V15.6236C79.8757 14.5166 80.0912 13.5985 80.522 12.8693C80.9595 12.1402 81.5561 11.5933 82.3118 11.2287C83.0675 10.8641 83.9259 10.6818 84.8871 10.6818C85.5367 10.6818 86.13 10.7315 86.6669 10.831C87.2105 10.9304 87.6148 11.0199 87.88 11.0994L87.1243 14.2812C86.9586 14.2282 86.7531 14.1785 86.5078 14.1321C86.2692 14.0857 86.0239 14.0625 85.772 14.0625C85.1489 14.0625 84.7147 14.2083 84.4695 14.5C84.2242 14.785 84.1016 15.1861 84.1016 15.7031V32H79.8757ZM89.4519 32V16.7273H93.6877V32H89.4519ZM91.5797 14.7585C90.95 14.7585 90.4098 14.5497 89.959 14.1321C89.5149 13.7079 89.2928 13.2008 89.2928 12.6108C89.2928 12.0275 89.5149 11.527 89.959 11.1094C90.4098 10.6851 90.95 10.473 91.5797 10.473C92.2095 10.473 92.7464 10.6851 93.1905 11.1094C93.6413 11.527 93.8667 12.0275 93.8667 12.6108C93.8667 13.2008 93.6413 13.7079 93.1905 14.1321C92.7464 14.5497 92.2095 14.7585 91.5797 14.7585ZM99.2767 32.2585C98.6204 32.2585 98.057 32.0265 97.5863 31.5625C97.1223 31.0919 96.8903 30.5284 96.8903 29.8722C96.8903 29.2225 97.1223 28.6657 97.5863 28.2017C98.057 27.7377 98.6204 27.5057 99.2767 27.5057C99.913 27.5057 100.47 27.7377 100.947 28.2017C101.424 28.6657 101.663 29.2225 101.663 29.8722C101.663 30.3097 101.55 30.7107 101.325 31.0753C101.106 31.4332 100.818 31.7216 100.46 31.9403C100.102 32.1525 99.7075 32.2585 99.2767 32.2585ZM109.096 11.6364V32H104.861V11.6364H109.096ZM116.565 32.2884C115.59 32.2884 114.722 32.1193 113.96 31.7812C113.197 31.4366 112.594 30.9295 112.15 30.2599C111.712 29.5838 111.494 28.742 111.494 27.7344C111.494 26.8859 111.649 26.1733 111.961 25.5966C112.273 25.0199 112.697 24.5559 113.234 24.2045C113.771 23.8532 114.38 23.5881 115.063 23.4091C115.753 23.2301 116.475 23.1042 117.231 23.0312C118.119 22.9384 118.835 22.8523 119.379 22.7727C119.922 22.6866 120.317 22.5606 120.562 22.3949C120.807 22.2292 120.93 21.9839 120.93 21.6591V21.5994C120.93 20.9697 120.731 20.4825 120.333 20.1378C119.942 19.7931 119.385 19.6207 118.663 19.6207C117.9 19.6207 117.294 19.7898 116.843 20.1278C116.392 20.4593 116.094 20.8769 115.948 21.3807L112.031 21.0625C112.229 20.1345 112.621 19.3324 113.204 18.6562C113.787 17.9735 114.54 17.4498 115.461 17.0852C116.389 16.714 117.463 16.5284 118.683 16.5284C119.531 16.5284 120.343 16.6278 121.119 16.8267C121.901 17.0256 122.594 17.3338 123.197 17.7514C123.807 18.169 124.287 18.706 124.639 19.3622C124.99 20.0118 125.166 20.7907 125.166 21.6989V32H121.148V29.8821H121.029C120.784 30.3594 120.456 30.7803 120.045 31.1449C119.634 31.5028 119.14 31.7846 118.563 31.9901C117.987 32.1889 117.32 32.2884 116.565 32.2884ZM117.778 29.3651C118.401 29.3651 118.951 29.2424 119.428 28.9972C119.906 28.7453 120.28 28.4072 120.552 27.983C120.824 27.5587 120.96 27.0781 120.96 26.5412V24.9205C120.827 25.0066 120.645 25.0862 120.413 25.1591C120.187 25.2254 119.932 25.2884 119.647 25.348C119.362 25.401 119.077 25.4508 118.792 25.4972C118.507 25.5369 118.248 25.5734 118.016 25.6065C117.519 25.6795 117.085 25.7955 116.714 25.9545C116.343 26.1136 116.054 26.3291 115.849 26.6009C115.643 26.866 115.541 27.1974 115.541 27.5952C115.541 28.1719 115.749 28.6127 116.167 28.9176C116.591 29.2159 117.128 29.3651 117.778 29.3651ZM132.408 23.1705V32H128.172V16.7273H132.209V19.4219H132.388C132.726 18.5336 133.292 17.831 134.088 17.3139C134.883 16.7902 135.848 16.5284 136.981 16.5284C138.042 16.5284 138.967 16.7604 139.756 17.2244C140.544 17.6884 141.158 18.3513 141.595 19.2131C142.033 20.0682 142.251 21.089 142.251 22.2756V32H138.015V23.0312C138.022 22.0966 137.783 21.3674 137.3 20.8438C136.816 20.3134 136.149 20.0483 135.301 20.0483C134.731 20.0483 134.227 20.1709 133.79 20.4162C133.359 20.6615 133.021 21.0194 132.775 21.4901C132.537 21.9541 132.414 22.5142 132.408 23.1705ZM150.938 32.2486C149.778 32.2486 148.727 31.9503 147.786 31.3537C146.851 30.7505 146.108 29.8655 145.558 28.6989C145.015 27.5256 144.743 26.0871 144.743 24.3835C144.743 22.6335 145.025 21.1785 145.588 20.0185C146.152 18.8518 146.901 17.9801 147.835 17.4034C148.777 16.8201 149.807 16.5284 150.928 16.5284C151.783 16.5284 152.495 16.6742 153.065 16.9659C153.642 17.2509 154.106 17.6089 154.457 18.0398C154.815 18.464 155.087 18.8816 155.273 19.2926H155.402V11.6364H159.628V32H155.452V29.554H155.273C155.074 29.9782 154.792 30.3991 154.428 30.8168C154.07 31.2277 153.602 31.5691 153.026 31.8409C152.456 32.1127 151.76 32.2486 150.938 32.2486ZM152.28 28.8778C152.963 28.8778 153.539 28.6922 154.01 28.321C154.487 27.9432 154.852 27.4162 155.104 26.7401C155.362 26.0639 155.492 25.2718 155.492 24.3636C155.492 23.4555 155.366 22.6667 155.114 21.9972C154.862 21.3277 154.497 20.8106 154.02 20.446C153.543 20.0814 152.963 19.8991 152.28 19.8991C151.584 19.8991 150.997 20.0881 150.52 20.4659C150.043 20.8437 149.681 21.3674 149.436 22.0369C149.191 22.7064 149.068 23.482 149.068 24.3636C149.068 25.2519 149.191 26.0374 149.436 26.7202C149.688 27.3963 150.049 27.9266 150.52 28.3111C150.997 28.6889 151.584 28.8778 152.28 28.8778Z" fill="#BBFFDD"/>
<g clip-path="url(#clip0_0_59)">
<path d="M37.4654 44.5973H7.23808C3.24692 44.5973 0 41.3573 0 37.3742V7.22308C0 3.24 3.24692 0 7.23808 0H37.4654C41.4554 0 44.7023 3.24 44.7023 7.22308V37.3754C44.7023 41.3584 41.4554 44.5973 37.4654 44.5973ZM19.8958 33.5838L19.7227 20.16L30.0635 16.8646L30.0912 26.3469C29.583 26.1955 29.0556 26.1185 28.5254 26.1185C25.9212 26.1185 23.7715 27.84 23.7715 30.0185C23.7715 32.1992 25.92 33.9196 28.5254 33.9196C31.1319 33.9196 33.2815 32.2004 33.2815 30.0196L33.105 8.07692L16.7042 13.8023V29.9123C16.1969 29.761 15.6702 29.6841 15.1408 29.6838C12.5354 29.6838 10.3846 31.4042 10.3846 33.5838C10.3846 35.7646 12.5342 37.4838 15.1408 37.4838C17.7462 37.4838 19.8958 35.7646 19.8958 33.5838Z" fill="#BBFFDD"/>
</g>
<defs>
<clipPath id="clip0_0_59">
<rect width="45" height="45" fill="white"/>
</clipPath>
</defs>
</svg>
